M48
METRIC
T1C0.600
T2C0.800
T3C0.900
T4C1.000
T5C1.200
%
G90
G05
T1
X208.94Y81.74
X208.94Y83.24
X229.03Y83.24
X230.53Y83.24
T2
X104.182Y118.109
X108.5Y117.22
X109.113Y69.109
X111.04Y117.22
X111.54Y61.475
X113.58Y117.22
X114.08Y59.062
X116.12Y117.22
X116.23Y54.084
X118.66Y117.22
X118.796Y56.396
X120.745Y66.621
X121.2Y117.22
X122.33Y51.32
X122.33Y101.27
X123.74Y113.41
X123.74Y117.22
X123.915Y74.373
X126.39Y71.644
X128.185Y115.315
X128.93Y48.877
X128.93Y112.25
X131.47Y46.244
X131.47Y112.25
X134.01Y43.704
X134.01Y112.25
X136.55Y41.291
X136.55Y112.45
X138.84Y112.7
X139.09Y38.717
X142.65Y108.89
X144.615Y105.075
X145.203Y108.457
X145.33Y100.456
X146.46Y119.05
X146.981Y100.329
X148.886Y100.202
X149.0Y119.05
X151.54Y119.05
X154.08Y119.05
X154.33Y97.46
X156.62Y119.05
X159.16Y119.05
X160.57Y66.674
X164.38Y119.125
X166.92Y119.125
X168.3Y38.717
X168.685Y89.205
X169.46Y119.125
X170.84Y41.384
X172.0Y119.125
X173.13Y87.3
X173.38Y43.704
X174.54Y119.125
X175.92Y46.337
X177.08Y114.68
X177.08Y117.22
X177.575Y85.395
X178.46Y48.911
X178.56Y107.27
X181.0Y51.29
X182.02Y83.49
X182.16Y117.22
X182.441Y97.277
X183.54Y53.957
X186.08Y56.624
X186.08Y81.97
X188.62Y59.071
X189.78Y49.783
X191.16Y61.611
X191.177Y48.64
X193.59Y90.55
X193.7Y62.99
X199.349Y63.856
X199.94Y57.862
X199.94Y119.76
X201.07Y86.74
X203.518Y60.63
X204.94Y66.42
X206.29Y104.52
X210.72Y110.035
X211.23Y89.205
X211.322Y107.522
X213.135Y98.095
X213.135Y108.92
X215.675Y92.38
X219.1Y78.795
X227.88Y117.22
X233.07Y44.505
X233.07Y59.11
X234.611Y34.924
X240.44Y94.92
X249.18Y31.11
X212.75Y83.24
X222.91Y83.24
X226.47Y41.58
X231.47Y41.58
X203.115Y36.702
X203.115Y46.862
X126.915Y35.559
X126.915Y45.719
X203.83Y50.418
X208.83Y50.418
X212.5Y113.97
X217.5Y113.97
X196.625Y59.36
X196.625Y69.52
X141.774Y38.734
X141.774Y41.274
X141.774Y43.814
X141.774Y46.354
X141.774Y48.894
X141.774Y51.434
X141.774Y53.974
X141.774Y56.514
X141.774Y59.054
X141.774Y61.594
X141.774Y64.134
X141.774Y66.674
X141.774Y69.214
X141.774Y71.754
X141.774Y74.294
X141.774Y76.834
X141.774Y79.374
X141.774Y81.914
X141.774Y84.454
X141.774Y86.994
X157.014Y38.734
X157.014Y41.274
X157.014Y43.814
X157.014Y46.354
X157.014Y48.894
X157.014Y51.434
X157.014Y53.974
X157.014Y56.514
X157.014Y59.054
X157.014Y61.594
X157.014Y64.134
X157.014Y66.674
X157.014Y69.214
X157.014Y71.754
X157.014Y74.294
X157.014Y76.834
X157.014Y79.374
X157.014Y81.914
X157.014Y84.454
X157.014Y86.994
X212.75Y41.965
X222.91Y41.965
X176.826Y43.687
X181.826Y43.687
X222.66Y59.44
X222.66Y64.44
X219.485Y89.205
X219.485Y96.825
X222.025Y89.205
X222.025Y96.825
X224.565Y89.205
X224.565Y96.825
X227.105Y89.205
X227.105Y96.825
X229.645Y89.205
X229.645Y96.825
X232.185Y89.205
X232.185Y96.825
X234.725Y89.205
X234.725Y96.825
X214.02Y68.0
X214.02Y75.62
X216.56Y68.0
X216.56Y75.62
X219.1Y68.0
X219.1Y75.62
X221.64Y68.0
X221.64Y75.62
X224.18Y68.0
X224.18Y75.62
X226.72Y68.0
X226.72Y75.62
X229.26Y68.0
X229.26Y75.62
X215.675Y96.825
X215.675Y106.985
X212.75Y36.885
X222.91Y36.885
X208.94Y66.73
X208.94Y76.89
X220.12Y103.81
X220.12Y111.43
X222.66Y103.81
X222.66Y111.43
X225.2Y103.81
X225.2Y111.43
X227.74Y103.81
X227.74Y111.43
X230.28Y103.81
X230.28Y111.43
X232.82Y103.81
X232.82Y111.43
X235.36Y103.81
X235.36Y111.43
X185.97Y94.36
X185.97Y104.52
X188.51Y94.36
X188.51Y104.52
X191.05Y94.36
X191.05Y104.52
X193.59Y94.36
X193.59Y104.52
X196.13Y94.36
X196.13Y104.52
X198.67Y94.36
X198.67Y104.52
X201.21Y94.36
X201.21Y104.52
X203.75Y94.36
X203.75Y104.52
X213.77Y89.84
X213.77Y94.84
X203.86Y62.92
X214.02Y62.92
X212.75Y47.93
X212.75Y55.55
X215.29Y47.93
X215.29Y55.55
X217.83Y47.93
X217.83Y55.55
X220.37Y47.93
X220.37Y55.55
X222.91Y47.93
X222.91Y55.55
X225.45Y47.93
X225.45Y55.55
X227.99Y47.93
X227.99Y55.55
X238.15Y53.395
X238.15Y55.895
T3
X196.384Y42.417
X198.924Y42.417
T4
X220.26Y122.3
X222.8Y122.3
X225.34Y122.3
X227.88Y122.3
X230.42Y122.3
X232.96Y122.3
X235.5Y122.3
X238.04Y122.3
X240.58Y122.3
X243.12Y122.3
X238.15Y41.965
X238.15Y44.505
X136.44Y122.3
X138.98Y122.3
X141.52Y122.3
X144.06Y122.3
X146.6Y122.3
X149.14Y122.3
X151.68Y122.3
X154.22Y122.3
X156.76Y122.3
X159.3Y122.3
X108.5Y122.3
X111.04Y122.3
X113.58Y122.3
X116.12Y122.3
X118.66Y122.3
X121.2Y122.3
X123.74Y122.3
X126.28Y122.3
X128.82Y122.3
X131.36Y122.3
X243.12Y32.511
X243.12Y35.051
X186.986Y44.068
X186.986Y46.608
X164.38Y122.3
X166.92Y122.3
X169.46Y122.3
X172.0Y122.3
X174.54Y122.3
X177.08Y122.3
X179.62Y122.3
X182.16Y122.3
X184.7Y122.3
X187.24Y122.3
X192.32Y122.3
X194.86Y122.3
X197.4Y122.3
X199.94Y122.3
X202.48Y122.3
X205.02Y122.3
X207.56Y122.3
X210.1Y122.3
X212.64Y122.3
X215.18Y122.3
T5
X238.15Y63.905
X238.15Y76.255
T0
M30
