%TF.GenerationSoftware,KiCad,Pcbnew,5.1.6-c6e7f7d~86~ubuntu18.04.1*%
%TF.CreationDate,2020-11-19T20:30:06+01:00*%
%TF.ProjectId,msx1-cpu,6d737831-2d63-4707-952e-6b696361645f,rev?*%
%TF.SameCoordinates,Original*%
%TF.FileFunction,Plated,1,2,PTH,Drill*%
%TF.FilePolarity,Positive*%
%FSLAX46Y46*%
G04 Gerber Fmt 4.6, Leading zero omitted, Abs format (unit mm)*
G04 Created by KiCad (PCBNEW 5.1.6-c6e7f7d~86~ubuntu18.04.1) date 2020-11-19 20:30:06*
%MOMM*%
%LPD*%
G01*
G04 APERTURE LIST*
%TA.AperFunction,ComponentDrill*%
%ADD10C,0.600000*%
%TD*%
%TA.AperFunction,ViaDrill*%
%ADD11C,0.800000*%
%TD*%
%TA.AperFunction,ComponentDrill*%
%ADD12C,0.800000*%
%TD*%
%TA.AperFunction,ComponentDrill*%
%ADD13C,0.900000*%
%TD*%
%TA.AperFunction,ComponentDrill*%
%ADD14C,1.000000*%
%TD*%
%TA.AperFunction,ComponentDrill*%
%ADD15C,1.200000*%
%TD*%
G04 APERTURE END LIST*
D10*
%TO.C,C2*%
X208940000Y-81740000D03*
X208940000Y-83240000D03*
%TO.C,C1*%
X229030000Y-83240000D03*
X230530000Y-83240000D03*
%TD*%
D11*
X104182000Y-118109000D03*
X108500000Y-117220000D03*
X109113021Y-69108979D03*
X111040000Y-117220000D03*
X111540312Y-61474688D03*
X113580000Y-117220000D03*
X114080312Y-59061688D03*
X116120000Y-117220000D03*
X116230000Y-54084000D03*
X118660000Y-117220000D03*
X118796423Y-56396423D03*
X120744990Y-66621010D03*
X121200000Y-117220000D03*
X122330000Y-51320000D03*
X122330000Y-101270000D03*
X123740000Y-113410000D03*
X123740000Y-117220000D03*
X123915010Y-74372990D03*
X126390000Y-71644000D03*
X128185000Y-115315000D03*
X128930000Y-48877000D03*
X128930000Y-112250000D03*
X131470000Y-46244000D03*
X131470000Y-112250000D03*
X134010000Y-43704000D03*
X134010000Y-112250000D03*
X136550000Y-41291000D03*
X136550000Y-112450000D03*
X138840000Y-112700000D03*
X139090000Y-38717000D03*
X142650000Y-108890000D03*
X144615097Y-105075097D03*
X145203000Y-108457000D03*
X145330000Y-100456000D03*
X146460000Y-119050000D03*
X146981000Y-100329000D03*
X148886000Y-100202000D03*
X149000000Y-119050000D03*
X151540000Y-119050000D03*
X154080000Y-119050000D03*
X154330000Y-97460000D03*
X156620000Y-119050000D03*
X159160000Y-119050000D03*
X160570000Y-66674000D03*
X164380000Y-119125000D03*
X166920000Y-119125000D03*
X168300000Y-38717000D03*
X168685000Y-89205000D03*
X169460000Y-119125000D03*
X170840000Y-41384000D03*
X172000000Y-119125000D03*
X173130000Y-87300000D03*
X173380000Y-43704000D03*
X174540000Y-119125000D03*
X175920000Y-46337000D03*
X177080000Y-114680000D03*
X177080000Y-117220000D03*
X177575000Y-85395000D03*
X178460000Y-48911000D03*
X178560000Y-107270000D03*
X181000000Y-51290000D03*
X182020000Y-83490000D03*
X182160000Y-117220000D03*
X182440880Y-97276852D03*
X183540000Y-53957000D03*
X186080000Y-56624000D03*
X186080000Y-81970000D03*
X188620000Y-59071000D03*
X189780000Y-49783000D03*
X191160000Y-61611000D03*
X191177000Y-48640000D03*
X193590000Y-90550000D03*
X193700000Y-62989968D03*
X199349011Y-63855592D03*
X199940000Y-57862022D03*
X199940000Y-119760000D03*
X201070000Y-86740000D03*
X203517781Y-60630000D03*
X204939960Y-66420000D03*
X206290000Y-104520000D03*
X210720269Y-110034731D03*
X211230000Y-89205000D03*
X211321703Y-107522291D03*
X213135000Y-98095000D03*
X213135000Y-108920010D03*
X215675000Y-92380000D03*
X219100000Y-78795000D03*
X227880000Y-117220000D03*
X233070000Y-44505000D03*
X233070000Y-59110000D03*
X234611000Y-34924000D03*
X240440000Y-94920000D03*
X249180000Y-31110000D03*
D12*
%TO.C,R2*%
X212750000Y-83240000D03*
X222910000Y-83240000D03*
%TO.C,C8*%
X226470000Y-41580000D03*
X231470000Y-41580000D03*
%TO.C,R8*%
X203115000Y-36702000D03*
X203115000Y-46862000D03*
%TO.C,R6*%
X126915000Y-35559000D03*
X126915000Y-45719000D03*
%TO.C,C9*%
X203830000Y-50418000D03*
X208830000Y-50418000D03*
%TO.C,C6*%
X212500000Y-113970000D03*
X217500000Y-113970000D03*
%TO.C,R9*%
X196625000Y-59360000D03*
X196625000Y-69520000D03*
%TO.C,CPU1*%
X141774000Y-38734000D03*
X141774000Y-41274000D03*
X141774000Y-43814000D03*
X141774000Y-46354000D03*
X141774000Y-48894000D03*
X141774000Y-51434000D03*
X141774000Y-53974000D03*
X141774000Y-56514000D03*
X141774000Y-59054000D03*
X141774000Y-61594000D03*
X141774000Y-64134000D03*
X141774000Y-66674000D03*
X141774000Y-69214000D03*
X141774000Y-71754000D03*
X141774000Y-74294000D03*
X141774000Y-76834000D03*
X141774000Y-79374000D03*
X141774000Y-81914000D03*
X141774000Y-84454000D03*
X141774000Y-86994000D03*
X157014000Y-38734000D03*
X157014000Y-41274000D03*
X157014000Y-43814000D03*
X157014000Y-46354000D03*
X157014000Y-48894000D03*
X157014000Y-51434000D03*
X157014000Y-53974000D03*
X157014000Y-56514000D03*
X157014000Y-59054000D03*
X157014000Y-61594000D03*
X157014000Y-64134000D03*
X157014000Y-66674000D03*
X157014000Y-69214000D03*
X157014000Y-71754000D03*
X157014000Y-74294000D03*
X157014000Y-76834000D03*
X157014000Y-79374000D03*
X157014000Y-81914000D03*
X157014000Y-84454000D03*
X157014000Y-86994000D03*
%TO.C,R4*%
X212750000Y-41965000D03*
X222910000Y-41965000D03*
%TO.C,C7*%
X176826000Y-43687000D03*
X181826000Y-43687000D03*
%TO.C,C5*%
X222660000Y-59440000D03*
X222660000Y-64440000D03*
%TO.C,U3*%
X219485000Y-89205000D03*
X219485000Y-96825000D03*
X222025000Y-89205000D03*
X222025000Y-96825000D03*
X224565000Y-89205000D03*
X224565000Y-96825000D03*
X227105000Y-89205000D03*
X227105000Y-96825000D03*
X229645000Y-89205000D03*
X229645000Y-96825000D03*
X232185000Y-89205000D03*
X232185000Y-96825000D03*
X234725000Y-89205000D03*
X234725000Y-96825000D03*
%TO.C,IC10*%
X214020000Y-68000000D03*
X214020000Y-75620000D03*
X216560000Y-68000000D03*
X216560000Y-75620000D03*
X219100000Y-68000000D03*
X219100000Y-75620000D03*
X221640000Y-68000000D03*
X221640000Y-75620000D03*
X224180000Y-68000000D03*
X224180000Y-75620000D03*
X226720000Y-68000000D03*
X226720000Y-75620000D03*
X229260000Y-68000000D03*
X229260000Y-75620000D03*
%TO.C,R7*%
X215675000Y-96825000D03*
X215675000Y-106985000D03*
%TO.C,R3*%
X212750000Y-36885000D03*
X222910000Y-36885000D03*
%TO.C,R1*%
X208940000Y-66730000D03*
X208940000Y-76890000D03*
%TO.C,U4*%
X220120000Y-103810000D03*
X220120000Y-111430000D03*
X222660000Y-103810000D03*
X222660000Y-111430000D03*
X225200000Y-103810000D03*
X225200000Y-111430000D03*
X227740000Y-103810000D03*
X227740000Y-111430000D03*
X230280000Y-103810000D03*
X230280000Y-111430000D03*
X232820000Y-103810000D03*
X232820000Y-111430000D03*
X235360000Y-103810000D03*
X235360000Y-111430000D03*
%TO.C,U2*%
X185970000Y-94360000D03*
X185970000Y-104520000D03*
X188510000Y-94360000D03*
X188510000Y-104520000D03*
X191050000Y-94360000D03*
X191050000Y-104520000D03*
X193590000Y-94360000D03*
X193590000Y-104520000D03*
X196130000Y-94360000D03*
X196130000Y-104520000D03*
X198670000Y-94360000D03*
X198670000Y-104520000D03*
X201210000Y-94360000D03*
X201210000Y-104520000D03*
X203750000Y-94360000D03*
X203750000Y-104520000D03*
%TO.C,C4*%
X213770000Y-89840000D03*
X213770000Y-94840000D03*
%TO.C,R5*%
X203860000Y-62920000D03*
X214020000Y-62920000D03*
%TO.C,U1*%
X212750000Y-47930000D03*
X212750000Y-55550000D03*
X215290000Y-47930000D03*
X215290000Y-55550000D03*
X217830000Y-47930000D03*
X217830000Y-55550000D03*
X220370000Y-47930000D03*
X220370000Y-55550000D03*
X222910000Y-47930000D03*
X222910000Y-55550000D03*
X225450000Y-47930000D03*
X225450000Y-55550000D03*
X227990000Y-47930000D03*
X227990000Y-55550000D03*
%TO.C,C3*%
X238150000Y-53395000D03*
X238150000Y-55895000D03*
D13*
%TO.C,D1*%
X196384000Y-42417000D03*
X198924000Y-42417000D03*
D14*
%TO.C,J3*%
X220260000Y-122300000D03*
X222800000Y-122300000D03*
X225340000Y-122300000D03*
X227880000Y-122300000D03*
X230420000Y-122300000D03*
X232960000Y-122300000D03*
X235500000Y-122300000D03*
X238040000Y-122300000D03*
X240580000Y-122300000D03*
X243120000Y-122300000D03*
%TO.C,J1*%
X238150000Y-41965000D03*
X238150000Y-44505000D03*
%TO.C,J6*%
X136440000Y-122300000D03*
X138980000Y-122300000D03*
X141520000Y-122300000D03*
X144060000Y-122300000D03*
X146600000Y-122300000D03*
X149140000Y-122300000D03*
X151680000Y-122300000D03*
X154220000Y-122300000D03*
X156760000Y-122300000D03*
X159300000Y-122300000D03*
%TO.C,J5*%
X108500000Y-122300000D03*
X111040000Y-122300000D03*
X113580000Y-122300000D03*
X116120000Y-122300000D03*
X118660000Y-122300000D03*
X121200000Y-122300000D03*
X123740000Y-122300000D03*
X126280000Y-122300000D03*
X128820000Y-122300000D03*
X131360000Y-122300000D03*
%TO.C,J4*%
X243120000Y-32511000D03*
X243120000Y-35051000D03*
%TO.C,J8*%
X186986000Y-44068000D03*
X186986000Y-46608000D03*
%TO.C,J7*%
X164380000Y-122300000D03*
X166920000Y-122300000D03*
X169460000Y-122300000D03*
X172000000Y-122300000D03*
X174540000Y-122300000D03*
X177080000Y-122300000D03*
X179620000Y-122300000D03*
X182160000Y-122300000D03*
X184700000Y-122300000D03*
X187240000Y-122300000D03*
%TO.C,J2*%
X192320000Y-122300000D03*
X194860000Y-122300000D03*
X197400000Y-122300000D03*
X199940000Y-122300000D03*
X202480000Y-122300000D03*
X205020000Y-122300000D03*
X207560000Y-122300000D03*
X210100000Y-122300000D03*
X212640000Y-122300000D03*
X215180000Y-122300000D03*
D15*
%TO.C,Y1*%
X238150000Y-63905000D03*
X238150000Y-76255000D03*
M02*
